0
SECTION
2
ENTITIES
999
Created by Metasequoia
0
3DFACE
8
layer1
62
1
10
-80.00000
20
0.00000
30
0.00000
11
-82.92893
21
7.07107
31
0.00000
12
-58.63961
22
7.07107
32
58.63961
13
-56.56854
23
0.00000
33
56.56854
0
3DFACE
8
layer1
62
1
10
-82.92893
20
7.07107
30
0.00000
11
-90.00000
21
10.00000
31
0.00000
12
-63.63961
22
10.00000
32
63.63961
13
-58.63961
23
7.07107
33
58.63961
0
3DFACE
8
layer1
62
1
10
-90.00000
20
10.00000
30
0.00000
11
-97.07107
21
7.07107
31
0.00000
12
-68.63961
22
7.07107
32
68.63961
13
-63.63961
23
10.00000
33
63.63961
0
3DFACE
8
layer1
62
1
10
-97.07107
20
7.07107
30
0.00000
11
-100.00000
21
-0.00000
31
0.00000
12
-70.71068
22
-0.00000
32
70.71068
13
-68.63961
23
7.07107
33
68.63961
0
3DFACE
8
layer1
62
1
10
-100.00000
20
-0.00000
30
0.00000
11
-97.07107
21
-7.07107
31
0.00000
12
-68.63961
22
-7.07107
32
68.63961
13
-70.71068
23
-0.00000
33
70.71068
0
3DFACE
8
layer1
62
1
10
-97.07107
20
-7.07107
30
0.00000
11
-90.00000
21
-10.00000
31
0.00000
12
-63.63961
22
-10.00000
32
63.63961
13
-68.63961
23
-7.07107
33
68.63961
0
3DFACE
8
layer1
62
1
10
-90.00000
20
-10.00000
30
0.00000
11
-82.92893
21
-7.07107
31
0.00000
12
-58.63961
22
-7.07107
32
58.63961
13
-63.63961
23
-10.00000
33
63.63961
0
3DFACE
8
layer1
62
1
10
-82.92893
20
-7.07107
30
0.00000
11
-80.00000
21
0.00000
31
0.00000
12
-56.56854
22
0.00000
32
56.56854
13
-58.63961
23
-7.07107
33
58.63961
0
3DFACE
8
layer1
62
1
10
-56.56854
20
0.00000
30
56.56854
11
-58.63961
21
7.07107
31
58.63961
12
0.00000
22
7.07107
32
82.92893
13
0.00000
23
0.00000
33
80.00000
0
3DFACE
8
layer1
62
1
10
-58.63961
20
7.07107
30
58.63961
11
-63.63961
21
10.00000
31
63.63961
12
0.00000
22
10.00000
32
90.00000
13
0.00000
23
7.07107
33
82.92893
0
3DFACE
8
layer1
62
1
10
-63.63961
20
10.00000
30
63.63961
11
-68.63961
21
7.07107
31
68.63961
12
0.00000
22
7.07107
32
97.07107
13
0.00000
23
10.00000
33
90.00000
0
3DFACE
8
layer1
62
1
10
-68.63961
20
7.07107
30
68.63961
11
-70.71068
21
-0.00000
31
70.71068
12
0.00000
22
-0.00000
32
100.00000
13
0.00000
23
7.07107
33
97.07107
0
3DFACE
8
layer1
62
1
10
-70.71068
20
-0.00000
30
70.71068
11
-68.63961
21
-7.07107
31
68.63961
12
0.00000
22
-7.07107
32
97.07107
13
0.00000
23
-0.00000
33
100.00000
0
3DFACE
8
layer1
62
1
10
-68.63961
20
-7.07107
30
68.63961
11
-63.63961
21
-10.00000
31
63.63961
12
0.00000
22
-10.00000
32
90.00000
13
0.00000
23
-7.07107
33
97.07107
0
3DFACE
8
layer1
62
1
10
-63.63961
20
-10.00000
30
63.63961
11
-58.63961
21
-7.07107
31
58.63961
12
0.00000
22
-7.07107
32
82.92893
13
0.00000
23
-10.00000
33
90.00000
0
3DFACE
8
layer1
62
1
10
-58.63961
20
-7.07107
30
58.63961
11
-56.56854
21
0.00000
31
56.56854
12
0.00000
22
0.00000
32
80.00000
13
0.00000
23
-7.07107
33
82.92893
0
3DFACE
8
layer1
62
1
10
0.00000
20
0.00000
30
80.00000
11
0.00000
21
7.07107
31
82.92893
12
58.63961
22
7.07107
32
58.63961
13
56.56854
23
0.00000
33
56.56854
0
3DFACE
8
layer1
62
1
10
0.00000
20
7.07107
30
82.92893
11
0.00000
21
10.00000
31
90.00000
12
63.63961
22
10.00000
32
63.63961
13
58.63961
23
7.07107
33
58.63961
0
3DFACE
8
layer1
62
1
10
0.00000
20
10.00000
30
90.00000
11
0.00000
21
7.07107
31
97.07107
12
68.63961
22
7.07107
32
68.63961
13
63.63961
23
10.00000
33
63.63961
0
3DFACE
8
layer1
62
1
10
0.00000
20
7.07107
30
97.07107
11
0.00000
21
-0.00000
31
100.00000
12
70.71068
22
-0.00000
32
70.71068
13
68.63961
23
7.07107
33
68.63961
0
3DFACE
8
layer1
62
1
10
0.00000
20
-0.00000
30
100.00000
11
0.00000
21
-7.07107
31
97.07107
12
68.63961
22
-7.07107
32
68.63961
13
70.71068
23
-0.00000
33
70.71068
0
3DFACE
8
layer1
62
1
10
0.00000
20
-7.07107
30
97.07107
11
0.00000
21
-10.00000
31
90.00000
12
63.63961
22
-10.00000
32
63.63961
13
68.63961
23
-7.07107
33
68.63961
0
3DFACE
8
layer1
62
1
10
0.00000
20
-10.00000
30
90.00000
11
0.00000
21
-7.07107
31
82.92893
12
58.63961
22
-7.07107
32
58.63961
13
63.63961
23
-10.00000
33
63.63961
0
3DFACE
8
layer1
62
1
10
0.00000
20
-7.07107
30
82.92893
11
0.00000
21
0.00000
31
80.00000
12
56.56854
22
0.00000
32
56.56854
13
58.63961
23
-7.07107
33
58.63961
0
3DFACE
8
layer1
62
1
10
56.56854
20
0.00000
30
56.56854
11
58.63961
21
7.07107
31
58.63961
12
82.92893
22
7.07107
32
-0.00001
13
80.00000
23
0.00000
33
-0.00001
0
3DFACE
8
layer1
62
1
10
58.63961
20
7.07107
30
58.63961
11
63.63961
21
10.00000
31
63.63961
12
90.00000
22
10.00000
32
-0.00001
13
82.92893
23
7.07107
33
-0.00001
0
3DFACE
8
layer1
62
1
10
63.63961
20
10.00000
30
63.63961
11
68.63961
21
7.07107
31
68.63961
12
97.07107
22
7.07107
32
-0.00001
13
90.00000
23
10.00000
33
-0.00001
0
3DFACE
8
layer1
62
1
10
68.63961
20
7.07107
30
68.63961
11
70.71068
21
-0.00000
31
70.71068
12
100.00000
22
-0.00000
32
-0.00001
13
97.07107
23
7.07107
33
-0.00001
0
3DFACE
8
layer1
62
1
10
70.71068
20
-0.00000
30
70.71068
11
68.63961
21
-7.07107
31
68.63961
12
97.07107
22
-7.07107
32
-0.00001
13
100.00000
23
-0.00000
33
-0.00001
0
3DFACE
8
layer1
62
1
10
68.63961
20
-7.07107
30
68.63961
11
63.63961
21
-10.00000
31
63.63961
12
90.00000
22
-10.00000
32
-0.00001
13
97.07107
23
-7.07107
33
-0.00001
0
3DFACE
8
layer1
62
1
10
63.63961
20
-10.00000
30
63.63961
11
58.63961
21
-7.07107
31
58.63961
12
82.92893
22
-7.07107
32
-0.00001
13
90.00000
23
-10.00000
33
-0.00001
0
3DFACE
8
layer1
62
1
10
58.63961
20
-7.07107
30
58.63961
11
56.56854
21
0.00000
31
56.56854
12
80.00000
22
0.00000
32
-0.00001
13
82.92893
23
-7.07107
33
-0.00001
0
3DFACE
8
layer1
62
1
10
80.00000
20
0.00000
30
-0.00001
11
82.92893
21
7.07107
31
-0.00001
12
58.63960
22
7.07107
32
-58.63962
13
56.56853
23
0.00000
33
-56.56855
0
3DFACE
8
layer1
62
1
10
82.92893
20
7.07107
30
-0.00001
11
90.00000
21
10.00000
31
-0.00001
12
63.63960
22
10.00000
32
-63.63962
13
58.63960
23
7.07107
33
-58.63962
0
3DFACE
8
layer1
62
1
10
90.00000
20
10.00000
30
-0.00001
11
97.07107
21
7.07107
31
-0.00001
12
68.63960
22
7.07107
32
-68.63963
13
63.63960
23
10.00000
33
-63.63962
0
3DFACE
8
layer1
62
1
10
97.07107
20
7.07107
30
-0.00001
11
100.00000
21
-0.00000
31
-0.00001
12
70.71066
22
-0.00000
32
-70.71069
13
68.63960
23
7.07107
33
-68.63963
0
3DFACE
8
layer1
62
1
10
100.00000
20
-0.00000
30
-0.00001
11
97.07107
21
-7.07107
31
-0.00001
12
68.63960
22
-7.07107
32
-68.63963
13
70.71066
23
-0.00000
33
-70.71069
0
3DFACE
8
layer1
62
1
10
97.07107
20
-7.07107
30
-0.00001
11
90.00000
21
-10.00000
31
-0.00001
12
63.63960
22
-10.00000
32
-63.63962
13
68.63960
23
-7.07107
33
-68.63963
0
3DFACE
8
layer1
62
1
10
90.00000
20
-10.00000
30
-0.00001
11
82.92893
21
-7.07107
31
-0.00001
12
58.63960
22
-7.07107
32
-58.63962
13
63.63960
23
-10.00000
33
-63.63962
0
3DFACE
8
layer1
62
1
10
82.92893
20
-7.07107
30
-0.00001
11
80.00000
21
0.00000
31
-0.00001
12
56.56853
22
0.00000
32
-56.56855
13
58.63960
23
-7.07107
33
-58.63962
0
3DFACE
8
layer1
62
1
10
56.56853
20
0.00000
30
-56.56855
11
58.63960
21
7.07107
31
-58.63962
12
-0.00000
22
7.07107
32
-82.92893
13
-0.00000
23
0.00000
33
-80.00000
0
3DFACE
8
layer1
62
1
10
58.63960
20
7.07107
30
-58.63962
11
63.63960
21
10.00000
31
-63.63962
12
-0.00000
22
10.00000
32
-90.00000
13
-0.00000
23
7.07107
33
-82.92893
0
3DFACE
8
layer1
62
1
10
63.63960
20
10.00000
30
-63.63962
11
68.63960
21
7.07107
31
-68.63963
12
-0.00000
22
7.07107
32
-97.07107
13
-0.00000
23
10.00000
33
-90.00000
0
3DFACE
8
layer1
62
1
10
68.63960
20
7.07107
30
-68.63963
11
70.71066
21
-0.00000
31
-70.71069
12
-0.00000
22
-0.00000
32
-100.00000
13
-0.00000
23
7.07107
33
-97.07107
0
3DFACE
8
layer1
62
1
10
70.71066
20
-0.00000
30
-70.71069
11
68.63960
21
-7.07107
31
-68.63963
12
-0.00000
22
-7.07107
32
-97.07107
13
-0.00000
23
-0.00000
33
-100.00000
0
3DFACE
8
layer1
62
1
10
68.63960
20
-7.07107
30
-68.63963
11
63.63960
21
-10.00000
31
-63.63962
12
-0.00000
22
-10.00000
32
-90.00000
13
-0.00000
23
-7.07107
33
-97.07107
0
3DFACE
8
layer1
62
1
10
63.63960
20
-10.00000
30
-63.63962
11
58.63960
21
-7.07107
31
-58.63962
12
-0.00000
22
-7.07107
32
-82.92893
13
-0.00000
23
-10.00000
33
-90.00000
0
3DFACE
8
layer1
62
1
10
58.63960
20
-7.07107
30
-58.63962
11
56.56853
21
0.00000
31
-56.56855
12
-0.00000
22
0.00000
32
-80.00000
13
-0.00000
23
-7.07107
33
-82.92893
0
3DFACE
8
layer1
62
1
10
-0.00000
20
0.00000
30
-80.00000
11
-0.00000
21
7.07107
31
-82.92893
12
-58.63960
22
7.07107
32
-58.63962
13
-56.56853
23
0.00000
33
-56.56855
0
3DFACE
8
layer1
62
1
10
-0.00000
20
7.07107
30
-82.92893
11
-0.00000
21
10.00000
31
-90.00000
12
-63.63960
22
10.00000
32
-63.63962
13
-58.63960
23
7.07107
33
-58.63962
0
3DFACE
8
layer1
62
1
10
-0.00000
20
10.00000
30
-90.00000
11
-0.00000
21
7.07107
31
-97.07107
12
-68.63960
22
7.07107
32
-68.63962
13
-63.63960
23
10.00000
33
-63.63962
0
3DFACE
8
layer1
62
1
10
-0.00000
20
7.07107
30
-97.07107
11
-0.00000
21
-0.00000
31
-100.00000
12
-70.71067
22
-0.00000
32
-70.71069
13
-68.63960
23
7.07107
33
-68.63962
0
3DFACE
8
layer1
62
1
10
-0.00000
20
-0.00000
30
-100.00000
11
-0.00000
21
-7.07107
31
-97.07107
12
-68.63960
22
-7.07107
32
-68.63962
13
-70.71067
23
-0.00000
33
-70.71069
0
3DFACE
8
layer1
62
1
10
-0.00000
20
-7.07107
30
-97.07107
11
-0.00000
21
-10.00000
31
-90.00000
12
-63.63960
22
-10.00000
32
-63.63962
13
-68.63960
23
-7.07107
33
-68.63962
0
3DFACE
8
layer1
62
1
10
-0.00000
20
-10.00000
30
-90.00000
11
-0.00000
21
-7.07107
31
-82.92893
12
-58.63960
22
-7.07107
32
-58.63962
13
-63.63960
23
-10.00000
33
-63.63962
0
3DFACE
8
layer1
62
1
10
-0.00000
20
-7.07107
30
-82.92893
11
-0.00000
21
0.00000
31
-80.00000
12
-56.56853
22
0.00000
32
-56.56855
13
-58.63960
23
-7.07107
33
-58.63962
0
3DFACE
8
layer1
62
1
10
-56.56853
20
0.00000
30
-56.56855
11
-58.63960
21
7.07107
31
-58.63962
12
-82.92893
22
7.07107
32
0.00000
13
-80.00000
23
0.00000
33
0.00000
0
3DFACE
8
layer1
62
1
10
-58.63960
20
7.07107
30
-58.63962
11
-63.63960
21
10.00000
31
-63.63962
12
-90.00000
22
10.00000
32
0.00000
13
-82.92893
23
7.07107
33
0.00000
0
3DFACE
8
layer1
62
1
10
-63.63960
20
10.00000
30
-63.63962
11
-68.63960
21
7.07107
31
-68.63962
12
-97.07107
22
7.07107
32
0.00000
13
-90.00000
23
10.00000
33
0.00000
0
3DFACE
8
layer1
62
1
10
-68.63960
20
7.07107
30
-68.63962
11
-70.71067
21
-0.00000
31
-70.71069
12
-100.00000
22
-0.00000
32
0.00000
13
-97.07107
23
7.07107
33
0.00000
0
3DFACE
8
layer1
62
1
10
-70.71067
20
-0.00000
30
-70.71069
11
-68.63960
21
-7.07107
31
-68.63962
12
-97.07107
22
-7.07107
32
0.00000
13
-100.00000
23
-0.00000
33
0.00000
0
3DFACE
8
layer1
62
1
10
-68.63960
20
-7.07107
30
-68.63962
11
-63.63960
21
-10.00000
31
-63.63962
12
-90.00000
22
-10.00000
32
0.00000
13
-97.07107
23
-7.07107
33
0.00000
0
3DFACE
8
layer1
62
1
10
-63.63960
20
-10.00000
30
-63.63962
11
-58.63960
21
-7.07107
31
-58.63962
12
-82.92893
22
-7.07107
32
0.00000
13
-90.00000
23
-10.00000
33
0.00000
0
3DFACE
8
layer1
62
1
10
-58.63960
20
-7.07107
30
-58.63962
11
-56.56853
21
0.00000
31
-56.56855
12
-80.00000
22
0.00000
32
0.00000
13
-82.92893
23
-7.07107
33
0.00000
0
3DFACE
8
layer1
62
1
10
53.65000
20
224.29926
30
47.80000
11
-53.65000
21
224.29926
31
47.80000
12
-53.65000
22
123.09925
32
47.80000
13
53.65000
23
123.09925
33
47.80000
0
3DFACE
8
layer1
62
1
10
-53.65000
20
224.29926
30
47.80000
11
-53.65000
21
224.29926
31
-47.80000
12
-53.65000
22
123.09925
32
-47.80000
13
-53.65000
23
123.09925
33
47.80000
0
3DFACE
8
layer1
62
1
10
-53.65000
20
224.29926
30
-47.80000
11
53.65000
21
224.29926
31
-47.80000
12
53.65000
22
123.09925
32
-47.80000
13
-53.65000
23
123.09925
33
-47.80000
0
3DFACE
8
layer1
62
1
10
53.65000
20
224.29926
30
-47.80000
11
53.65000
21
224.29926
31
47.80000
12
53.65000
22
123.09925
32
47.80000
13
53.65000
23
123.09925
33
-47.80000
0
3DFACE
8
layer1
62
1
10
53.65000
20
224.29926
30
-47.80000
11
-53.65000
21
224.29926
31
-47.80000
12
-53.65000
22
224.29926
32
47.80000
13
53.65000
23
224.29926
33
47.80000
0
3DFACE
8
layer1
62
1
10
53.65000
20
123.09925
30
47.80000
11
-53.65000
21
123.09925
31
47.80000
12
-53.65000
22
123.09925
32
-47.80000
13
53.65000
23
123.09925
33
-47.80000
0
ENDSEC
0
EOF
